# xmcd
#
# Track frame offsets:
#	150
#	16015
#	31248
#	48610
#	62278
#	75950
#	92022
#	107205
#	121120
#	138073
#
# Disc length: 2070 seconds
#
# Revision: 1
# Processed by: cddbd v1.5.1PL0 Copyright (c) Steve Scherf et al.
# Submitted via: audiograbber 1.82.02
#
DISCID=6808140a
DTITLE=Various Artist - Top Hits Monthly
DYEAR=1900
DGENRE=Karaoke
TTITLE0=Martina McBride - It's my time
TTITLE1=Warren Brothers - Move on
TTITLE2=Tim Rushlow - She misses him
TTITLE3=Trick Pony - Pour Me
TTITLE4=Dwight Yoakam - What do you know about love
TTITLE5=Faith Hill - If my heart had wings
TTITLE6=Patty Loveless - The last thing on my mind
TTITLE7=Gary Allen - Right where I need to be
TTITLE8=Sawyer Brown - Lookin' for love
TTITLE9=Mindy McCready - Scream
EXTD=
EXTT0=
EXTT1=
EXTT2=
EXTT3=
EXTT4=
EXTT5=
EXTT6=
EXTT7=
EXTT8=
EXTT9=
PLAYORDER=
